<?xml version="1.0" encoding="UTF-8" standalone="no"?>
<svg width="400" height="300" viewBox="0 0 400 300" fill="none" xmlns="http://www.w3.org/2000/svg">
  <!-- Background elements -->
  <circle cx="200" cy="150" r="120" fill="#F5F7FA"/>
  <circle cx="320" cy="80" r="30" fill="#FFE082" opacity="0.6"/>
  <circle cx="80" cy="220" r="40" fill="#4C72B0" opacity="0.2"/>
  
  <!-- Collaboration concept - people connecting -->
  <circle cx="120" cy="150" r="40" fill="#FF6F61" opacity="0.7"/>
  <circle cx="280" cy="150" r="40" fill="#4C72B0" opacity="0.7"/>
  
  <!-- Connection lines -->
  <path d="M160 150H240" stroke="#333333" stroke-width="3" stroke-dasharray="6 3"/>
  
  <!-- Person silhouette left -->
  <circle cx="120" cy="120" r="20" fill="white"/>
  <path d="M100 170C100 159.954 108.954 150 120 150C131.046 150 140 159.954 140 170V190H100V170Z" fill="white"/>
  
  <!-- Person silhouette right -->
  <circle cx="280" cy="120" r="20" fill="white"/>
  <path d="M260 170C260 159.954 268.954 150 280 150C291.046 150 300 159.954 300 170V190H260V170Z" fill="white"/>
  
  <!-- Shared document/book -->
  <rect x="170" y="130" width="60" height="80" rx="4" fill="white" stroke="#333333" stroke-width="2"/>
  <line x1="180" y1="150" x2="220" y2="150" stroke="#333333" stroke-width="2"/>
  <line x1="180" y1="160" x2="220" y2="160" stroke="#333333" stroke-width="2"/>
  <line x1="180" y1="170" x2="220" y2="170" stroke="#333333" stroke-width="2"/>
  <line x1="180" y1="180" x2="210" y2="180" stroke="#333333" stroke-width="2"/>
  
  <!-- Bee mascot -->
  <circle cx="200" cy="70" r="15" fill="#FFE082"/>
  <path d="M200 60C196.7 60 194 62.7 194 66C194 69.3 196.7 72 200 72C203.3 72 206 69.3 206 66C206 62.7 203.3 60 200 60ZM200 70C197.8 70 196 68.2 196 66C196 63.8 197.8 62 200 62C202.2 62 204 63.8 204 66C204 68.2 202.2 70 200 70Z" fill="#4C72B0"/>
  <path d="M207 75C205.9 75 205 75.9 205 77C205 78.1 205.9 79 207 79C208.1 79 209 78.1 209 77C209 75.9 208.1 75 207 75Z" fill="#4C72B0"/>
  <path d="M193 75C191.9 75 191 75.9 191 77C191 78.1 191.9 79 193 79C194.1 79 195 78.1 195 77C195 75.9 194.1 75 193 75Z" fill="#4C72B0"/>
  <path d="M200 72V80" stroke="#4C72B0" stroke-width="2" stroke-linecap="round"/>
  <path d="M195 68L191 64" stroke="#4C72B0" stroke-width="2" stroke-linecap="round"/>
  <path d="M205 68L209 64" stroke="#4C72B0" stroke-width="2" stroke-linecap="round"/>
  
  <!-- Connection icons -->
  <circle cx="200" cy="150" r="15" fill="white" stroke="#333333" stroke-width="2"/>
  <path d="M193 150H207" stroke="#333333" stroke-width="2"/>
  <path d="M200 143V157" stroke="#333333" stroke-width="2"/>
  
  <!-- Speech bubbles with ideas -->
  <path d="M90 100C90 94.4772 94.4772 90 100 90H140C145.523 90 150 94.4772 150 100V110C150 115.523 145.523 120 140 120H100C94.4772 120 90 115.523 90 110V100Z" fill="white" stroke="#FF6F61" stroke-width="2"/>
  <path d="M100 120L90 135L95 120" fill="white" stroke="#FF6F61" stroke-width="2"/>
  <text x="120" y="110" text-anchor="middle" font-family="Arial" font-size="10" fill="#333333">Ideas</text>
  
  <path d="M250 100C250 94.4772 254.477 90 260 90H300C305.523 90 310 94.4772 310 100V110C310 115.523 305.523 120 300 120H260C254.477 120 250 115.523 250 110V100Z" fill="white" stroke="#4C72B0" stroke-width="2"/>
  <path d="M300 120L310 135L305 120" fill="white" stroke="#4C72B0" stroke-width="2"/>
  <text x="280" y="110" text-anchor="middle" font-family="Arial" font-size="10" fill="#333333">Feedback</text>
</svg>
