<?xml version="1.0" encoding="UTF-8" standalone="no"?>
<svg width="200" height="60" viewBox="0 0 200 60" fill="none" xmlns="http://www.w3.org/2000/svg">
  <!-- Text "Ownabee" -->
  <path d="M25.5 40C31.5 40 36 35.5 36 29.5C36 23.5 31.5 19 25.5 19C19.5 19 15 23.5 15 29.5C15 35.5 19.5 40 25.5 40ZM25.5 36C21.9 36 19 33.1 19 29.5C19 25.9 21.9 23 25.5 23C29.1 23 32 25.9 32 29.5C32 33.1 29.1 36 25.5 36Z" fill="#FF6F61"/>
  <path d="M52 20V40H48V37.5C46.7 39.2 44.5 40 42.5 40C37.8 40 34 36.2 34 30.5C34 24.8 37.8 21 42.5 21C44.5 21 46.7 21.8 48 23.5V20H52ZM43 36C45.8 36 48 33.8 48 31C48 28.2 45.8 26 43 26C40.2 26 38 28.2 38 31C38 33.8 40.2 36 43 36Z" fill="#FF6F61"/>
  <path d="M62 40V20H66V22.5C67.3 20.8 69.5 20 71.5 20C76.2 20 80 23.8 80 29.5C80 35.2 76.2 39 71.5 39C69.5 39 67.3 38.2 66 36.5V40H62ZM71 34C73.8 34 76 31.8 76 29C76 26.2 73.8 24 71 24C68.2 24 66 26.2 66 29C66 31.8 68.2 34 71 34Z" fill="#FF6F61"/>
  <path d="M96 40L89 31.5V40H85V15H89V28.5L96 20H101L92.5 29.5L101 40H96Z" fill="#FF6F61"/>
  <path d="M116 40V37.5C114.7 39.2 112.5 40 110.5 40C105.8 40 102 36.2 102 30.5C102 24.8 105.8 21 110.5 21C112.5 21 114.7 21.8 116 23.5V20H120V40H116ZM111 36C113.8 36 116 33.8 116 31C116 28.2 113.8 26 111 26C108.2 26 106 28.2 106 31C106 33.8 108.2 36 111 36Z" fill="#FF6F61"/>
  <path d="M136 40V37.5C134.7 39.2 132.5 40 130.5 40C125.8 40 122 36.2 122 30.5C122 24.8 125.8 21 130.5 21C132.5 21 134.7 21.8 136 23.5V20H140V40H136ZM131 36C133.8 36 136 33.8 136 31C136 28.2 133.8 26 131 26C128.2 26 126 28.2 126 31C126 33.8 128.2 36 131 36Z" fill="#FF6F61"/>
  <path d="M155 40V37.5C153.7 39.2 151.5 40 149.5 40C144.8 40 141 36.2 141 30.5C141 24.8 144.8 21 149.5 21C151.5 21 153.7 21.8 155 23.5V15H159V40H155ZM150 36C152.8 36 155 33.8 155 31C155 28.2 152.8 26 150 26C147.2 26 145 28.2 145 31C145 33.8 147.2 36 150 36Z" fill="#FF6F61"/>
  
  <!-- Bee icon -->
  <circle cx="175" cy="30" r="15" fill="#FFE082"/>
  <path d="M175 20C171.7 20 169 22.7 169 26C169 29.3 171.7 32 175 32C178.3 32 181 29.3 181 26C181 22.7 178.3 20 175 20ZM175 30C172.8 30 171 28.2 171 26C171 23.8 172.8 22 175 22C177.2 22 179 23.8 179 26C179 28.2 177.2 30 175 30Z" fill="#4C72B0"/>
  <path d="M182 35C180.9 35 180 35.9 180 37C180 38.1 180.9 39 182 39C183.1 39 184 38.1 184 37C184 35.9 183.1 35 182 35Z" fill="#4C72B0"/>
  <path d="M168 35C166.9 35 166 35.9 166 37C166 38.1 166.9 39 168 39C169.1 39 170 38.1 170 37C170 35.9 169.1 35 168 35Z" fill="#4C72B0"/>
  <path d="M175 32V40" stroke="#4C72B0" stroke-width="2" stroke-linecap="round"/>
  <path d="M170 28L166 24" stroke="#4C72B0" stroke-width="2" stroke-linecap="round"/>
  <path d="M180 28L184 24" stroke="#4C72B0" stroke-width="2" stroke-linecap="round"/>
</svg>
